<?xml version="1.0" encoding="utf-8"?>
<!-- Uploaded to: SVG Repo, www.svgrepo.com, Generator: SVG Repo Mixer Tools -->
<svg width="800px" height="800px" viewBox="0 0 1024 1024" class="icon"  version="1.1" xmlns="http://www.w3.org/2000/svg"><path d="M878.797809 504.538809m-120.931271 0a120.931271 120.931271 0 1 0 241.862542 0 120.931271 120.931271 0 1 0-241.862542 0Z" fill="#FAE1DC" /><path d="M145.202191 504.538809m-120.931271 0a120.931271 120.931271 0 1 0 241.862542 0 120.931271 120.931271 0 1 0-241.862542 0Z" fill="#FAE1DC" /><path d="M522.636166 469.825748m-405.44431 0a405.44431 405.44431 0 1 0 810.888621 0 405.44431 405.44431 0 1 0-810.888621 0Z" fill="#FAE1DC" /><path d="M363.746305 178.398319c0-27.022565-4.162745-52.77514-11.394632-76.658008C238.652289 154.586006 153.598236 258.513522 126.646226 384.101423c18.732353 8.32549 38.840528 13.087953 59.865918 13.087952 97.895063 0 177.234161-97.965618 177.234161-218.791056zM684.665725 97.648121c-8.04327 25.011748-12.629345 52.2107-12.629345 80.750198 0 120.825438 79.339098 218.791057 177.198884 218.791056 24.517863 0 47.906845-6.173563 69.1439-17.285975-28.64533-126.999001-116.803803-231.385124-233.713439-282.255279zM522.636166 594.566989c-109.113308 0-197.589279 81.702691-197.589279 182.525787s197.589279 182.525786 197.589279 182.525786 197.589279-81.702691 197.589279-182.525786-88.475971-182.525786-197.589279-182.525787z m1.869708 222.636304c-66.60392 1.164158-82.267131-80.221036-82.267131-80.221035h160.759569s-11.888518 79.056878-78.492438 80.221035z" fill="#00263A" /><path d="M661.347297 551.422607c-21.801495 0-42.262445-8.501878-57.678713-23.882868-15.416268-15.416268-23.882868-35.912495-23.882867-57.678713s8.501878-42.262445 23.882867-57.678713c15.416268-15.416268 35.912495-23.882868 57.678713-23.882868s42.262445 8.501878 57.678713 23.882868c15.416268 15.416268 23.882868 35.912495 23.882868 57.678713s-8.501878 42.262445-23.882868 57.678713c-15.416268 15.38099-35.877218 23.882868-57.678713 23.882868z m0-156.102939c-41.098288 0-74.541358 33.44307-74.541358 74.541358s33.44307 74.541358 74.541358 74.541358 74.541358-33.44307 74.541358-74.541358-33.44307-74.541358-74.541358-74.541358zM378.315913 545.178489c-21.801495 0-42.262445-8.501878-57.678713-23.882868-15.416268-15.416268-23.882868-35.912495-23.882868-57.678713s8.501878-42.262445 23.882868-57.678713c15.416268-15.416268 35.912495-23.882868 57.678713-23.882867s42.262445 8.501878 57.678713 23.882867c15.416268 15.416268 23.882868 35.912495 23.882867 57.678713s-8.501878 42.262445-23.882867 57.678713c-15.416268 15.416268-35.912495 23.882868-57.678713 23.882868z m0-156.102939c-41.098288 0-74.541358 33.44307-74.541358 74.541358 0 41.098288 33.44307 74.541358 74.541358 74.541358 41.098288 0 74.541358-33.44307 74.541358-74.541358-0.035278-41.098288-33.44307-74.541358-74.541358-74.541358z" fill="#40210F" /><path d="M458.607503 457.125848h124.776519v18.697075H458.607503z" fill="#40210F" /></svg>