<svg xmlns="http://www.w3.org/2000/svg" xmlns:xlink="http://www.w3.org/1999/xlink" version="1.1" x="0px" y="0px" viewBox="0 0 100 100" enable-background="new 0 0 100 100" xml:space="preserve"><path d="M52.8,34.8c-1.5-1.6-4.1-1.6-5.6,0c0,0-12.1,12.1-12.5,12.5c-1.6,1.6-1.6,4.1,0,5.7c1.5,1.6,4.1,1.6,5.7,0  c0.4-0.4,5.6-5.6,5.6-5.6V76c0,2.2,1.9,4.1,4,4.1c2.2,0,4-1.9,4-4.1V47.4c0,0,5.5,5.4,5.6,5.6c1.6,1.6,4.1,1.6,5.8,0  c1.5-1.6,1.5-4.1,0-5.7C65.3,47.1,52.8,34.8,52.8,34.8L52.8,34.8z M84.3,25.6c0,0-0.4-0.4-19.4-19.4C64.4,5.6,63.3,5,62,5H18.6  c-2.3,0-4.1,1.8-4.1,4.1v81.8c0,2.3,1.8,4.1,4.1,4.1h62.8c2.3,0,4-1.8,4-4.1V28.5C85.5,27.2,85,26.2,84.3,25.6L84.3,25.6z   M22.7,13.2h35.2L58,28.5c0,2.2,1.8,4,4,4h15.3v54.3H22.7V13.2z"></path></svg>