<?xml version="1.0" encoding="utf-8"?>
<!-- Uploaded to: SVG Repo, www.svgrepo.com, Generator: SVG Repo Mixer Tools -->
<svg width="800px" height="800px" viewBox="0 0 1024 1024" class="icon"  version="1.1" xmlns="http://www.w3.org/2000/svg"><path d="M169.790609 369.17904s-48.012678-294.179075 348.224205-332.20822c131.091191-0.42333 310.19506 52.034313 338.205395 344.20257 70.061116 70.061116 200.940641 170.108106 106.079443 380.256176-36.018328 64.028663-140.086954 210.148069-350.235023 156.102938-136.100596-64.028663-162.100114-56.02067-162.100113-56.02067l-20.002343 24.023977s-132.078961 140.086954-340.216212-76.05829C31.679195 727.386778-42.368278 531.279154 169.790609 369.17904z" fill="#F4CA3D" /><path d="M512.017639 585.641782m-315.592518 0a315.592517 315.592517 0 1 0 631.185035 0 315.592517 315.592517 0 1 0-631.185035 0Z" fill="#FAE1DC" /><path d="M446.965928 390.274985a199.317876 195.331519 0 1 0 398.635753 0 199.317876 195.331519 0 1 0-398.635753 0Z" fill="#F4CB3E" /><path d="M562.887794 619.155407l-52.281255 36.54749-50.023496-36.54749-83.784063 65.228098c-1.12888 36.54749 34.28973 134.371998 135.218659 135.500879 128.480656-2.8222 135.218658-135.500878 135.218658-135.500879l-84.348503-65.228098z m-46.495745 134.689496c-32.59641 0.56444-40.286905-39.299135-40.286906-39.299135h78.704104c0.035278 0-5.78551 38.734695-38.417198 39.299135z" fill="#E15B48" /></svg>